<svg width="20" height="20" viewBox="0 0 20 20" fill="none" xmlns="http://www.w3.org/2000/svg">
	<circle cx="9.75" cy="9.75" r="9.75" fill="black" fill-opacity="0.35" />
	<path d="M13.06 11.6079C13.06 12.2399 12.82 12.7759 12.34 13.2159C11.868 13.6559 11.18 13.9119 10.276 13.9839V15.3399H9.50801V13.9839C8.92401 13.9519 8.36801 13.8439 7.84001 13.6599C7.32001 13.4679 6.90401 13.2279 6.59201 12.9399L7.03601 12.0039C7.32401 12.2679 7.68801 12.4879 8.12801 12.6639C8.56801 12.8319 9.02801 12.9319 9.50801 12.9639V10.1799C8.94801 10.0439 8.48001 9.8959 8.10401 9.7359C7.73601 9.5759 7.42401 9.3399 7.16801 9.0279C6.92001 8.7159 6.79601 8.3079 6.79601 7.8039C6.79601 7.1719 7.02401 6.6359 7.48001 6.1959C7.94401 5.7559 8.62001 5.4999 9.50801 5.4279V4.0599H10.276V5.4159C10.732 5.4319 11.172 5.5039 11.596 5.6319C12.028 5.7599 12.4 5.9319 12.712 6.1479L12.316 7.1079C11.668 6.6999 10.988 6.4759 10.276 6.4359V9.2319C10.86 9.3759 11.34 9.5279 11.716 9.6879C12.092 9.8399 12.408 10.0719 12.664 10.3839C12.928 10.6879 13.06 11.0959 13.06 11.6079ZM7.97201 7.7559C7.97201 8.0999 8.10401 8.3679 8.36801 8.5599C8.63201 8.7519 9.01201 8.9119 9.50801 9.0399V6.4479C8.99601 6.5119 8.61201 6.6639 8.35601 6.9039C8.10001 7.1359 7.97201 7.4199 7.97201 7.7559ZM10.276 12.9519C10.812 12.9039 11.212 12.7679 11.476 12.5439C11.748 12.3119 11.884 12.0239 11.884 11.6799C11.884 11.3279 11.744 11.0599 11.464 10.8759C11.192 10.6839 10.796 10.5159 10.276 10.3719V12.9519Z" fill="#FFE66A" />
</svg>
