<svg width="33" height="26" viewBox="0 0 33 26" fill="none" xmlns="http://www.w3.org/2000/svg">
<path d="M27.5444 23.3126H28.2499C28.6104 23.3126 29.0494 23.1507 29.3943 22.9078C29.8333 22.5841 30.0684 22.1631 30.0684 21.7098V19.6376C30.0684 19.5081 29.9587 19.3948 29.8333 19.3948H29.0494C28.7829 19.3948 28.5164 19.2653 28.3126 19.0386L27.8266 18.4234C27.7482 18.3101 27.7796 18.1968 27.7952 18.1806C27.8109 18.1482 27.8736 18.0511 27.999 18.0511H29.4727C29.5667 18.0511 29.6451 18.0025 29.6765 17.9215C29.7235 17.8406 29.7078 17.7435 29.6608 17.6625C29.4256 17.3387 29.1278 17.0797 28.7672 16.9016C28.7045 16.8692 28.438 16.7883 26.9173 16.3512C26.0865 16.1083 25.1458 15.8331 24.5501 15.655C24.362 15.5903 24.1739 15.5093 24.0171 15.3636C22.9197 14.4732 21.0855 13.259 20.0195 12.8705C19.2199 12.5791 17.276 12.4658 15.7397 12.4658C13.7017 12.4658 10.6917 12.8057 10.2527 13.0162C9.34347 13.4857 7.30546 15.2179 6.97625 15.5093L4.562 16.1407C3.95059 16.3026 3.52732 16.8692 3.52732 17.5006V20.8356C3.52732 21.3699 3.84086 21.8717 4.32684 22.0984L5.04798 22.4222C5.20475 22.4869 5.3772 22.4707 5.50261 22.3736C5.64371 22.2765 5.72209 22.1146 5.72209 21.9365C5.72209 20.4794 6.89786 19.2976 8.34014 19.2976C9.78242 19.2976 10.9582 20.4794 10.9582 21.9365V23.0535C10.9582 23.1831 11.0679 23.2964 11.1933 23.2964H21.8694C21.9948 23.2964 22.1045 23.1831 22.1045 23.0535V21.9365C22.1045 20.4794 23.2803 19.2976 24.7226 19.2976C26.1648 19.2976 27.3406 20.4794 27.3406 21.9365V23.0535C27.3093 23.2154 27.419 23.3126 27.5444 23.3126ZM24.7069 18.8443C23.0138 18.8443 21.6185 20.2366 21.6185 21.9689V22.8431H11.4128V21.9689C11.4128 20.2528 10.0333 18.8443 8.32447 18.8443C6.63135 18.8443 5.2361 20.2366 5.2361 21.9689C5.2361 21.9851 5.23611 21.9851 5.20475 22.0012L4.48361 21.6775C4.17007 21.5318 3.96627 21.208 3.96627 20.8518V17.5168C3.96627 17.0959 4.24846 16.7397 4.64038 16.6264L7.10166 15.9788C7.13302 15.9626 7.16437 15.9465 7.19572 15.9303C7.2114 15.9141 9.50024 13.939 10.4252 13.4695C10.7387 13.3076 13.6233 12.9676 15.7083 12.9676C17.5895 12.9676 19.2043 13.1133 19.8314 13.34C20.8504 13.7123 22.6219 14.878 23.6879 15.7522C23.8917 15.9303 24.1268 16.0436 24.3777 16.1245C24.9891 16.3026 25.9297 16.5778 26.7606 16.8207C27.5914 17.0635 28.4694 17.3064 28.5321 17.3387C28.6575 17.4035 28.7829 17.4844 28.8926 17.5654H27.999C27.7325 17.5654 27.4817 17.7273 27.372 17.9701C27.2622 18.2291 27.2936 18.5205 27.4504 18.731L27.9363 19.3624L27.952 19.3786C28.2499 19.7186 28.6418 19.8966 29.0494 19.8966H29.5981V21.726C29.5981 22.406 28.7045 22.8431 28.2499 22.8431H27.7796V21.9689C27.7796 20.2366 26.4 18.8443 24.7069 18.8443ZM15.3634 14.3113C15.3634 14.0361 15.2537 13.7933 15.0656 13.6152C14.8774 13.4371 14.6266 13.34 14.3758 13.3562C12.8551 13.4371 10.9425 13.6799 10.6133 13.7933C10.5976 13.7933 10.5976 13.7933 10.5976 13.8095C10.0489 14.1009 8.95155 14.8618 8.12067 15.5903C7.68171 15.9788 7.54062 16.6264 7.7601 17.1768L7.9639 17.6787C8.13634 18.132 8.54395 18.4558 9.01426 18.5367C10.3625 18.7958 11.3501 19.7995 11.6637 21.2242C11.8204 21.9527 12.4161 22.4545 13.1216 22.4545H14.658C15.2223 22.4545 15.6926 21.9689 15.6926 21.3861V21.3699L15.3634 14.3113ZM14.6736 21.9689H13.1373C12.6513 21.9689 12.2437 21.6127 12.134 21.127C11.7891 19.5081 10.6603 18.3587 9.10831 18.0672C8.7791 18.0025 8.52827 17.792 8.40285 17.5006L8.19905 16.9988C8.05796 16.6426 8.15202 16.2217 8.43421 15.9626C9.29644 15.1856 10.3468 14.4894 10.7857 14.2466C11.0366 14.1656 12.714 13.9228 14.3914 13.8418C14.5169 13.8418 14.6423 13.8742 14.7363 13.9714C14.8304 14.0685 14.8774 14.1818 14.8774 14.3275L15.2223 21.4022C15.238 21.7098 14.9872 21.9689 14.6736 21.9689ZM23.2646 15.8493C22.5591 15.3151 20.4584 13.8904 19.7686 13.6961C19.4865 13.6152 18.0912 13.4695 16.7743 13.3885C16.5078 13.3724 16.2413 13.4695 16.0375 13.6638C15.8337 13.858 15.724 14.1171 15.724 14.4085L16.0689 20.8194C16.0689 21.726 16.79 22.4545 17.6523 22.4545H20.2233C20.772 22.4545 21.2266 22.0498 21.305 21.4994C21.4931 20.3176 22.1359 19.3786 23.1078 18.8605C23.4371 18.6824 23.6409 18.3425 23.6409 17.9701V16.6588C23.6565 16.335 23.5154 16.0274 23.2646 15.8493ZM23.1862 17.9701C23.1862 18.1644 23.0765 18.3425 22.904 18.4396C21.791 19.0224 21.0542 20.1071 20.8504 21.4346C20.8033 21.7422 20.5368 21.9851 20.2233 21.9851H17.6523C17.0409 21.9851 16.5392 21.467 16.5235 20.8194L16.1786 14.4085C16.1786 14.2628 16.2413 14.1171 16.3354 14.0199C16.4294 13.9228 16.5549 13.8742 16.696 13.8742C16.7116 13.8742 16.7116 13.8742 16.7273 13.8742C18.0599 13.9552 19.4081 14.1171 19.6275 14.1656C20.1919 14.3275 22.2143 15.655 22.9667 16.2379C23.0922 16.335 23.1705 16.4969 23.1705 16.6588L23.1862 17.9701ZM0.235154 26H32.7492C32.8746 26 32.9843 25.8867 32.9843 25.7572V24.4944C32.9843 24.3649 32.8746 24.2516 32.7492 24.2516H0.235154C0.109739 24.2516 0 24.3649 0 24.4944V25.7572C0 25.8867 0.109739 26 0.235154 26ZM0.470309 24.7372H32.514V25.5143H0.470309V24.7372ZM23.5468 4.51681C22.8884 4.51681 22.3553 5.06725 22.3553 5.7472C22.3553 6.42715 22.8884 6.97759 23.5468 6.97759C24.2052 6.97759 24.7382 6.42715 24.7382 5.7472C24.7382 5.08344 24.2052 4.51681 23.5468 4.51681ZM23.5468 6.49191C23.1549 6.49191 22.8257 6.15193 22.8257 5.7472C22.8257 5.34246 23.1549 5.00249 23.5468 5.00249C23.9387 5.00249 24.2679 5.34246 24.2679 5.7472C24.2679 6.16812 23.9387 6.49191 23.5468 6.49191ZM29.3943 5.24533C29.0651 5.58531 29.0651 6.15193 29.3943 6.49191C29.5667 6.66999 29.7862 6.75093 30.0057 6.75093C30.2252 6.75093 30.4447 6.66999 30.6171 6.49191C30.9463 6.15193 30.9463 5.58531 30.6171 5.24533C30.2565 4.90536 29.7235 4.90536 29.3943 5.24533ZM30.2565 6.15193C30.0998 6.31382 29.8646 6.31382 29.7078 6.15193C29.5511 5.99004 29.5511 5.7472 29.7078 5.5853C29.8646 5.42341 30.0998 5.42341 30.2565 5.5853C30.4133 5.7472 30.4133 5.99004 30.2565 6.15193ZM9.45321 4.51681C8.79478 4.51681 8.26175 5.06725 8.26175 5.7472C8.26175 6.42715 8.79478 6.97759 9.45321 6.97759C10.1116 6.97759 10.6447 6.42715 10.6447 5.7472C10.6447 5.08344 10.096 4.51681 9.45321 4.51681ZM9.45321 6.49191C9.06128 6.49191 8.73206 6.15193 8.73206 5.7472C8.73206 5.34246 9.06128 5.00249 9.45321 5.00249C9.84513 5.00249 10.1743 5.34246 10.1743 5.7472C10.1743 6.16812 9.84513 6.49191 9.45321 6.49191ZM2.39858 5.24533C2.06936 5.58531 2.06936 6.15193 2.39858 6.49191C2.57102 6.66999 2.7905 6.75093 3.00998 6.75093C3.22946 6.75093 3.44893 6.66999 3.62138 6.49191C3.95059 6.15193 3.95059 5.58531 3.62138 5.24533C3.27649 4.90536 2.72779 4.90536 2.39858 5.24533ZM3.27648 6.15193C3.11971 6.31382 2.88456 6.31382 2.72779 6.15193C2.57102 5.99004 2.57102 5.7472 2.72779 5.5853C2.80617 5.50436 2.90024 5.47199 2.9943 5.47199C3.08836 5.47199 3.1981 5.50436 3.26081 5.5853C3.41758 5.7472 3.41758 5.99004 3.27648 6.15193ZM0.235154 1.74845H6.38052V2.76837C6.38052 2.89789 6.49026 3.01121 6.61568 3.01121H7.18005V3.90162L2.90024 4.30636C2.41425 4.33873 1.9753 4.58157 1.70879 4.95393C1.41093 5.35866 1.31687 5.8929 1.45796 6.39477C1.47364 6.42715 1.47363 6.45953 1.48931 6.50809C1.48931 6.50809 1.48931 6.5081 1.48931 6.52429C1.55202 6.68618 1.6304 6.84807 1.74014 6.97759L3.54299 9.84309L4.09169 10.7011C4.13872 10.7659 4.2171 10.8145 4.29549 10.8145C4.34252 10.8145 4.38955 10.7983 4.4209 10.7821L4.84418 10.5069L5.84751 12.0934C5.87886 12.142 5.94157 12.1905 5.9886 12.1905C6.00428 12.1905 6.01995 12.1905 6.03563 12.1905C6.08266 12.1905 6.12969 12.1743 6.16105 12.1582L6.44323 11.9801L7.46223 13.599L5.56532 13.9714L5.75345 14.9751L6.20808 14.878L6.11401 14.3437L7.93254 13.9875L8.96722 12.4172L9.40618 12.7248L9.67268 12.3201L8.85749 11.7372L7.83848 13.2752L6.85083 11.7049L7.13302 11.5268C7.24275 11.4458 7.27411 11.3001 7.19572 11.1868L6.1924 9.60025L6.61568 9.32503C6.72542 9.24409 6.75677 9.09838 6.67838 8.98505L6.22375 8.27273L6.16105 8.17559L6.12969 8.14322L5.9886 7.91656L9.29644 8.22417C9.32779 8.22417 9.37483 8.22417 9.40618 8.22417C9.97055 8.22417 10.4879 8.0137 10.8955 7.60896C11.0523 7.44707 11.1933 7.26899 11.3031 7.07472C11.5539 6.70237 11.7107 6.23288 11.7107 5.73101V3.05978H12.2751C12.4005 3.05978 12.5102 2.94645 12.5102 2.81694V1.79702H20.4741V2.81694C20.4741 2.94645 20.5838 3.05978 20.7093 3.05978H21.2736V5.73101C21.2736 6.23288 21.4304 6.68618 21.6812 7.07472C21.791 7.26899 21.9164 7.44707 22.0888 7.60896C22.4964 8.0137 23.0138 8.22417 23.5938 8.22417C23.6252 8.22417 23.6722 8.22417 23.7036 8.22417L26.9957 7.91656L26.8546 8.14322L26.8233 8.17559L26.7606 8.27273L26.3059 8.98505C26.2276 9.09838 26.2589 9.24409 26.3686 9.32503L26.7919 9.60025L25.7886 11.1868C25.7102 11.3001 25.7416 11.4458 25.8513 11.5268L26.1335 11.7049L24.9264 13.599L25.3183 13.858L26.5254 11.9639L26.8076 12.142C26.839 12.1743 26.886 12.1743 26.933 12.1743C26.9487 12.1743 26.9644 12.1743 26.98 12.1743C27.0428 12.1582 27.0898 12.1258 27.1211 12.0772L28.1245 10.4907L28.5477 10.7659C28.5948 10.7983 28.6261 10.7983 28.6732 10.7983C28.7515 10.7983 28.8299 10.7659 28.877 10.6849L29.4256 9.8269L31.2442 6.96139C31.3539 6.83188 31.4323 6.66999 31.495 6.50809V6.49191C31.5107 6.45953 31.5107 6.42715 31.5264 6.39477C31.6675 5.90909 31.5734 5.39104 31.2912 4.98631C31.0247 4.59777 30.5857 4.33873 30.0998 4.30636L25.8199 3.90162V3.01121H26.3843C26.5097 3.01121 26.6195 2.89789 26.6195 2.76837V1.74845H32.7648C32.8903 1.74845 33 1.63513 33 1.50561V0.242839C33 0.113325 32.8903 0 32.7648 0H0.235154C0.109739 0 0 0.113325 0 0.242839V1.50561C0 1.63513 0.109739 1.74845 0.235154 1.74845ZM2.93159 7.09092C2.33587 7.05854 1.88123 6.55666 1.88123 5.94147C1.88123 5.32628 2.35155 4.82441 2.94727 4.79203L7.19572 4.3873V5.68245C7.19572 6.45953 7.57197 7.15567 8.13634 7.57659L2.93159 7.09092ZM11.2404 5.68245C11.2404 6.70237 10.4409 7.52802 9.45321 7.52802C8.46556 7.52802 7.66603 6.70237 7.66603 5.68245V3.01121H11.2561V5.68245H11.2404ZM6.14537 9.01743L4.3582 10.2154L4.07601 9.76215L5.86318 8.56414L6.14537 9.01743ZM6.66271 11.2192L6.11401 11.5915L5.2361 10.1993L5.7848 9.8269L6.66271 11.2192ZM5.61235 8.1594L3.82518 9.35742L2.68076 7.54421C2.75915 7.5604 2.82185 7.57659 2.90024 7.57659L5.39287 7.81943L5.61235 8.1594ZM12.0399 2.52553H11.4755H7.4152H6.85083V1.74845H12.0399V2.52553ZM25.334 5.68245C25.334 6.70237 24.5344 7.52802 23.5468 7.52802C22.5591 7.52802 21.7596 6.70237 21.7596 5.68245V3.01121H25.334V5.68245ZM30.0527 4.79203C30.6484 4.82441 31.1031 5.32628 31.1031 5.94147C31.1031 6.55666 30.6328 7.05854 30.0371 7.09092L24.848 7.57659C25.428 7.15567 25.7886 6.45953 25.7886 5.68245V4.3873L30.0527 4.79203ZM30.0841 7.57659C30.1625 7.57659 30.2408 7.5604 30.3192 7.54421L29.1748 9.35742L27.3876 8.1594L27.6071 7.80324L30.0841 7.57659ZM26.8389 9.01743L27.1211 8.56414L28.9083 9.76215L28.6261 10.2154L26.8389 9.01743ZM26.8703 11.5915L26.3216 11.2192L27.1995 9.8269L27.7482 10.1993L26.8703 11.5915ZM26.1335 2.52553H25.5691H21.5088H20.9444V1.74845H26.1335V2.52553ZM0.470309 0.485679H32.514V1.26277H26.3686H20.7093H12.2751H6.61568H0.470309V0.485679V0.485679Z" fill="#231F20"/>
<path d="M24.2681 13.8903L23.9702 12.2552C23.9388 12.1257 24.0329 11.9962 24.1583 11.9638C24.2837 11.9314 24.4091 12.0286 24.4405 12.1581L24.7384 13.7932C24.7697 13.9227 24.6757 14.0522 24.5502 14.0846C24.5346 14.0846 24.5189 14.0846 24.5032 14.0846C24.3778 14.0846 24.2837 14.0036 24.2681 13.8903ZM25.2557 14.5865C25.2714 14.5865 25.3027 14.5865 25.3184 14.5703L26.8704 14.1493C26.9958 14.117 27.0742 13.9875 27.0429 13.8579C27.0115 13.7284 26.8861 13.6475 26.7607 13.6799L25.2087 14.1008C25.0833 14.1332 25.0049 14.2627 25.0362 14.3922C25.0519 14.5217 25.146 14.5865 25.2557 14.5865ZM24.8638 15.0883C24.8481 15.2178 24.9422 15.3474 25.0833 15.3474L26.6823 15.5093H26.698C26.8234 15.5093 26.9175 15.4121 26.9331 15.2826C26.9488 15.1531 26.8548 15.0236 26.7137 15.0236L25.1146 14.8617C24.9892 14.8617 24.8795 14.9588 24.8638 15.0883ZM22.7631 12.9999C22.669 13.097 22.669 13.2427 22.7474 13.3399L23.8448 14.5541C23.8918 14.6026 23.9545 14.635 24.0172 14.635C24.0799 14.635 24.127 14.6188 24.174 14.5703C24.2681 14.4731 24.2681 14.3274 24.1897 14.2303L23.0923 13.0161C23.0139 12.919 22.8571 12.9028 22.7631 12.9999Z" fill="url(#paint0_linear_581_327)"/>
<defs>
<linearGradient id="paint0_linear_581_327" x1="24.8744" y1="12.2425" x2="24.7636" y2="15.5056" gradientUnits="userSpaceOnUse">
<stop stop-color="#FFE66A"/>
<stop offset="1" stop-color="#F2AF4B"/>
</linearGradient>
</defs>
</svg>
