<svg width="197" height="104" viewBox="0 0 197 104" fill="none" xmlns="http://www.w3.org/2000/svg">
<path d="M142.3 47C139.3 47 136.9 49.4 136.9 52.4C136.9 55.4 139.3 57.7999 142.3 57.7999C145.3 57.7999 147.7 55.4 147.7 52.4C147.7 49.5 145.2 47 142.3 47ZM142.3 54.9C141 54.9 139.9 53.8 139.9 52.5C139.9 51.2 141 50.0999 142.3 50.0999C143.6 50.0999 144.7 51.2 144.7 52.5C144.7 53.8 143.6 54.9 142.3 54.9ZM161 25.7C156.8 24.1 150.5 23.0999 144.4 22.0999C140.9 21.4999 137.6 21 135 20.4C134.4 20.2 132.5 18.5999 130.8 17.0999C125.9 12.9999 117.8 6.19995 108.7 2.79995C97.7999 -1.30005 73.4 0.799988 63.5 1.89999C59.5 2.29999 52.8 3.39996 50.4 4.49996C40.3 8.99996 25.8 22.8999 25.8 28.0999V49.2C25.8 53.9 35.7 56.7999 38.7 57.5999H38.8C40.9 63.3999 46.5 67.5 53 67.5C58.4 67.5 63.2001 64.6 65.8 60.2999H129.3C132 64.6 136.7 67.5 142.1 67.5C147.5 67.5 152.3 64.6 154.9 60.2999H159.7C164.1 60.2999 170.4 56.6 170.4 50.9V38C170.6 32.8 166.9 28 161 25.7ZM164.8 32.2C164.9 32.2 165.1 32.1999 165.2 32.0999C166.5 33.5999 167.3 35.3999 167.5 37.2999H164.4C162.8 37.2999 161.2 36.7 160 35.7L155.7 32.0999H164.8V32.2ZM107.7 5.69998C116.3 8.89998 124.2 15.5 128.9 19.5C129.3 19.8 129.7 20.1 130 20.4C122.1 20.4 105.3 20.4 89.2 20.4L86.6 3.39999C94.8 3.29999 102.8 3.79998 107.7 5.69998ZM63.9 4.89999C68.4 4.39999 75.9 3.69996 83.7 3.49996L86.3 20.4C68.5 20.4 52.4 20.4 51.4 20.4C51.3 20.4 51.3 20.4 51.3 20.4C44 20.4 43.3 19.3 43.2 19.2C43.2 19.2 43.2 18.6 44.5 17.3L57 5.89999C59.1 5.49999 61.7 5.19999 63.9 4.89999ZM28.8 29.5999H35.9C36.3 29.5999 36.5 29.9 36.5 30C36.6 30.1 36.7 30.4 36.5 30.7C36.4 30.8 36.4 30.9999 36.3 31.0999L35.7 33.4C34.9 34.5 33.7 35.0999 32.4 35.0999H28.8V29.5999ZM53 64.5999C46.3 64.5999 40.9 59.2 40.9 52.5C40.9 45.8 46.3 40.4 53 40.4C59.7 40.4 65.1 45.8 65.1 52.5C65.2 59.1 59.7 64.5999 53 64.5999ZM142.3 64.5999C135.6 64.5999 130.2 59.2 130.2 52.5C130.2 45.8 135.6 40.4 142.3 40.4C149 40.4 154.4 45.8 154.4 52.5C154.4 59.1 148.9 64.5999 142.3 64.5999ZM159.9 57.4H156.6C157.1 55.9 157.4 54.2 157.4 52.5C157.4 44.2 150.6 37.4 142.3 37.4C134 37.4 127.2 44.2 127.2 52.5C127.2 54.2 127.5 55.9 128 57.4H67.3C67.8 55.9 68.1 54.2 68.1 52.5C68.1 44.2 61.3 37.4 53 37.4C44.7 37.4 37.9 44.2 37.9 52.5C37.9 53.1 37.9 53.7 38 54.2999C33 52.7999 28.8 50.5 28.8 49.2V38.2H32.4C34.8 38.2 37.1 37 38.4 34.9C38.5 34.8 38.5 34.6 38.6 34.5L39.2 32.2C39.8 31.1 39.8 29.8 39.2 28.7C38.5 27.5 37.3 26.8 36 26.8H29.5C31.8 22.6 41.2 12.8 50.3 8.19998L42.4 15.4C41.7 16.1 39.4 18.3999 40.4 20.5999C41.4 23.0999 45.5 23.7 51.2 23.7C51.3 23.7 51.3 23.7 51.4 23.7C53.6 23.7 130.7 23.5999 134.6 23.5999C137.3 24.1999 140.6 24.7 144.1 25.3C150 26.2 156.1 27.2 160.1 28.7C160.6 28.9 161.1 29.1 161.6 29.4H155.7C154.5 29.4 153.4 30.2 153 31.3C152.6 32.5 152.9 33.7 153.9 34.5L158.4 38.2999C160.2 39.7999 162.4 40.5999 164.7 40.5999H167.8V51C167.6 54.9 162.5 57.4 159.9 57.4ZM107.2 29.9C107.2 30.7 106.5 31.4 105.7 31.4H96.9C96.1 31.4 95.4 30.7 95.4 29.9C95.4 29.1 96.1 28.4 96.9 28.4H105.7C106.5 28.4 107.2 29.1 107.2 29.9ZM66.8 29.9C66.8 30.7 66.1 31.4 65.3 31.4H56.5C55.7 31.4 55 30.7 55 29.9C55 29.1 55.7 28.4 56.5 28.4H65.3C66.1 28.4 66.8 29.1 66.8 29.9ZM53 47C50 47 47.6 49.4 47.6 52.4C47.6 55.4 50 57.7999 53 57.7999C56 57.7999 58.4 55.4 58.4 52.4C58.5 49.5 56 47 53 47ZM53 54.9C51.7 54.9 50.6 53.8 50.6 52.5C50.6 51.2 51.7 50.0999 53 50.0999C54.3 50.0999 55.4 51.2 55.4 52.5C55.5 53.8 54.4 54.9 53 54.9Z" fill="#231F20"/>
<path d="M174.4 60C166.6 60 159.5 64.1 155.7 70.8H38.3001C34.4001 64.1 27.3 60 19.5 60C11.7 60 4.4 64.2 0.6 71.1C0.3 71.6 0.3 72.1 0.6 72.6C0.9 73.1 1.40005 73.3 1.90005 73.3H17.4C20.8 73.3 23.6 76.1 23.6 79.5V83.9C23.6 87.3 20.8 90.1 17.4 90.1H1.90005C1.40005 90.1 0.9 90.4 0.6 90.8C0.3 91.3 0.3 91.8 0.6 92.3C4.4 99.1 11.7 103.4 19.5 103.4C27.3 103.4 34.4001 99.3 38.3001 92.6H155.7C159.6 99.3 166.7 103.4 174.4 103.4C186.4 103.4 196.1 93.7 196.1 81.7C196.1 69.7 186.3 60 174.4 60ZM174.4 100.4C167.4 100.4 161.1 96.6 157.9 90.4C157.6 89.9 157.1 89.6 156.6 89.6C156.5 89.6 156.5 89.6 156.4 89.6H37.4C36.8 89.6 36.3 89.9 36.1 90.4C32.9 96.6 26.5 100.4 19.6 100.4C13.8 100.4 8.30007 97.7 4.80007 93.1H17.6C22.7 93.1 26.8001 89 26.8001 83.9V79.5C26.8001 74.4 22.7 70.3 17.6 70.3H4.80007C8.30007 65.7 13.8 63 19.6 63C26.6 63 32.9 66.8 36.1 73C36.4 73.5 36.9 73.8 37.4 73.8H156.4C157 73.9 157.6 73.6 157.9 73C161.1 66.8 167.5 63 174.4 63C184.7 63 193.1 71.4 193.1 81.7C193.1 92 184.7 100.4 174.4 100.4ZM189.4 81L182.5 69.1C182.2 68.6 181.7 68.3 181.2 68.3H167.5C167 68.3 166.5 68.6 166.2 69.1L159.3 81C159 81.5 159 82 159.3 82.5L166.2 94.4C166.5 94.9 167 95.2 167.5 95.2H181.2C181.7 95.2 182.2 94.9 182.5 94.4L189.4 82.5C189.7 82 189.7 81.4 189.4 81ZM168.4 92.1L162.4 81.7L168.4 71.3H180.4L186.4 81.7L180.4 92.1H168.4Z" fill="#008AFF"/>
</svg>
